REM DIRINDEX 1\2,1\3\7,1\3\8,1\4\9,1\4\10,1\4\11,1\5\12,1\5\13,1\5\14,1\6\15,1\6\16,1\6\17
REM DIRNAME "folder01","folder02","folder03","folder04","folder05","folder06","folder07","folder08","folder09","folder10","folder11","folder12","folder13","folder14","folder15","folder16","folder17"
TITLE ""
FILE "2Q_t_0801-0817.mp3" MP3
  TRACK 01 AUDIO
    TITLE "0:"
    INDEX 01 00:00:00
  TRACK 02 AUDIO
    TITLE "2:cjc174_3375"
    INDEX 01 00:00:12
  TRACK 03 AUDIO
    TITLE "0:"
    INDEX 01 00:01:41
  TRACK 04 AUDIO
    TITLE "2:cjc174_3376"
    INDEX 01 00:02:17
  TRACK 05 AUDIO
    TITLE "0:"
    INDEX 01 00:03:24
  TRACK 06 AUDIO
    TITLE "7:cjc174_3377"
    INDEX 01 00:03:67
  TRACK 07 AUDIO
    TITLE "0:"
    INDEX 01 00:05:17
  TRACK 08 AUDIO
    TITLE "8:cjc174_3378"
    INDEX 01 00:05:66
  TRACK 09 AUDIO
    TITLE "0:"
    INDEX 01 00:09:01
  TRACK 10 AUDIO
    TITLE "7:cjc174_3379"
    INDEX 01 00:09:45
  TRACK 11 AUDIO
    TITLE "0:"
    INDEX 01 00:11:14
  TRACK 12 AUDIO
    TITLE "8:cjc174_3380"
    INDEX 01 00:11:65
  TRACK 13 AUDIO
    TITLE "0:"
    INDEX 01 00:13:29
  TRACK 14 AUDIO
    TITLE "7:cjc174_3381"
    INDEX 01 00:13:72
  TRACK 15 AUDIO
    TITLE "0:"
    INDEX 01 00:14:57
  TRACK 16 AUDIO
    TITLE "8:cjc174_3382"
    INDEX 01 00:15:37
  TRACK 17 AUDIO
    TITLE "0:"
    INDEX 01 00:17:70
  TRACK 18 AUDIO
    TITLE "7:cjc174_3383"
    INDEX 01 00:18:38
  TRACK 19 AUDIO
    TITLE "0:"
    INDEX 01 00:19:41
  TRACK 20 AUDIO
    TITLE "8:cjc174_3384"
    INDEX 01 00:20:13
  TRACK 21 AUDIO
    TITLE "0:"
    INDEX 01 00:23:66
  TRACK 22 AUDIO
    TITLE "7:cjc174_3385"
    INDEX 01 00:24:34
  TRACK 23 AUDIO
    TITLE "0:"
    INDEX 01 00:25:46
  TRACK 24 AUDIO
    TITLE "8:cjc174_3386"
    INDEX 01 00:26:18
  TRACK 25 AUDIO
    TITLE "0:"
    INDEX 01 00:27:39
  TRACK 26 AUDIO
    TITLE "7:cjc174_3387"
    INDEX 01 00:28:09
  TRACK 27 AUDIO
    TITLE "0:"
    INDEX 01 00:29:34
  TRACK 28 AUDIO
    TITLE "8:cjc174_3388"
    INDEX 01 00:30:09
  TRACK 29 AUDIO
    TITLE "0:"
    INDEX 01 00:31:42
  TRACK 30 AUDIO
    TITLE "7:cjc174_3389"
    INDEX 01 00:32:10
  TRACK 31 AUDIO
    TITLE "0:"
    INDEX 01 00:33:16
  TRACK 32 AUDIO
    TITLE "8:cjc174_3390"
    INDEX 01 00:33:72
  TRACK 33 AUDIO
    TITLE "0:"
    INDEX 01 00:36:71
  TRACK 34 AUDIO
    TITLE "7:cjc174_3391"
    INDEX 01 00:37:39
  TRACK 35 AUDIO
    TITLE "0:"
    INDEX 01 00:38:66
  TRACK 36 AUDIO
    TITLE "8:cjc174_3392"
    INDEX 01 00:39:36
  TRACK 37 AUDIO
    TITLE "0:"
    INDEX 01 00:41:09
  TRACK 38 AUDIO
    TITLE "7:cjc174_3393"
    INDEX 01 00:41:54
  TRACK 39 AUDIO
    TITLE "0:"
    INDEX 01 00:42:58
  TRACK 40 AUDIO
    TITLE "8:cjc174_3394"
    INDEX 01 00:43:30
  TRACK 41 AUDIO
    TITLE "0:"
    INDEX 01 00:46:24
  TRACK 42 AUDIO
    TITLE "7:cjc174_3395"
    INDEX 01 00:46:69
  TRACK 43 AUDIO
    TITLE "0:"
    INDEX 01 00:48:19
  TRACK 44 AUDIO
    TITLE "8:cjc174_3396"
    INDEX 01 00:48:72
  TRACK 45 AUDIO
    TITLE "0:"
    INDEX 01 00:50:30
  TRACK 46 AUDIO
    TITLE "7:cjc174_3397"
    INDEX 01 00:50:75
  TRACK 47 AUDIO
    TITLE "0:"
    INDEX 01 00:52:19
  TRACK 48 AUDIO
    TITLE "8:cjc174_3398"
    INDEX 01 00:52:64
  TRACK 49 AUDIO
    TITLE "0:"
    INDEX 01 00:57:18
  TRACK 50 AUDIO
    TITLE "7:cjc174_3399"
    INDEX 01 00:57:63
  TRACK 51 AUDIO
    TITLE "0:"
    INDEX 01 00:59:13
  TRACK 52 AUDIO
    TITLE "8:cjc174_3400"
    INDEX 01 00:59:58
  TRACK 53 AUDIO
    TITLE "0:"
    INDEX 01 01:04:61
  TRACK 54 AUDIO
    TITLE "7:cjc174_3401"
    INDEX 01 01:05:31
  TRACK 55 AUDIO
    TITLE "0:"
    INDEX 01 01:06:58
  TRACK 56 AUDIO
    TITLE "8:cjc174_3402"
    INDEX 01 01:07:30
  TRACK 57 AUDIO
    TITLE "0:"
    INDEX 01 01:10:64
  TRACK 58 AUDIO
    TITLE "7:cjc174_3403"
    INDEX 01 01:11:34
  TRACK 59 AUDIO
    TITLE "0:"
    INDEX 01 01:12:37
  TRACK 60 AUDIO
    TITLE "8:cjc174_3404"
    INDEX 01 01:13:09
  TRACK 61 AUDIO
    TITLE "0:"
    INDEX 01 01:15:34
  TRACK 62 AUDIO
    TITLE "7:cjc174_3405"
    INDEX 01 01:16:02
  TRACK 63 AUDIO
    TITLE "0:"
    INDEX 01 01:17:15
  TRACK 64 AUDIO
    TITLE "8:cjc174_3406"
    INDEX 01 01:17:60
  TRACK 65 AUDIO
    TITLE "0:"
    INDEX 01 01:20:49
  TRACK 66 AUDIO
    TITLE "7:cjc174_3407"
    INDEX 01 01:21:19
  TRACK 67 AUDIO
    TITLE "0:"
    INDEX 01 01:22:28
  TRACK 68 AUDIO
    TITLE "8:cjc174_3408"
    INDEX 01 01:23:02
  TRACK 69 AUDIO
    TITLE "0:"
    INDEX 01 01:25:46
  TRACK 70 AUDIO
    TITLE "7:cjc174_3409"
    INDEX 01 01:26:14
  TRACK 71 AUDIO
    TITLE "0:"
    INDEX 01 01:27:33
  TRACK 72 AUDIO
    TITLE "8:cjc174_3410"
    INDEX 01 01:28:05
  TRACK 73 AUDIO
    TITLE "0:"
    INDEX 01 01:31:09
